<svg width="178" height="178" viewBox="0 0 178 178" fill="none" xmlns="http://www.w3.org/2000/svg">
<rect width="178" height="177.583" rx="48" fill="white"/>
<path d="M56.2747 48.055C55.9573 48.3019 55.534 48.972 55.3224 49.5011C54.8992 50.665 54.8992 56.5552 55.2871 62.4806C55.534 66.0076 55.7104 66.8188 56.5921 68.406C57.1212 69.4641 58.2499 70.8044 59.0258 71.4393C59.8018 72.0741 66.3268 75.5306 73.5572 79.1635C86.1135 85.4769 88.4766 86.8877 88.4766 88.2633C88.4766 89.2156 85.4081 91.0849 73.2045 97.5041C58.92 105.087 57.6855 105.934 56.0631 109.355C55.1813 111.224 55.1461 111.542 55.0402 119.337C54.9344 124.874 55.0402 127.731 55.3224 128.401C55.8515 129.671 57.0859 130.235 58.4968 129.812C59.8018 129.424 76.661 120.677 111.72 102.195C120.432 97.6099 122.689 94.9294 122.971 88.8981C123.289 82.3026 121.031 78.8813 114.083 75.3896C80.5055 58.5656 58.2851 47.6317 57.6503 47.6317C57.227 47.6317 56.5921 47.8434 56.2747 48.055Z" fill="#151515"/>
</svg>
