<svg width="68" height="83" viewBox="0 0 68 83" fill="none" xmlns="http://www.w3.org/2000/svg">
<path d="M1.27471 0.423247C0.95728 0.67014 0.534035 1.34028 0.322412 1.86934C-0.100833 3.03326 -0.100833 8.92342 0.287141 14.8489C0.534035 18.3759 0.710387 19.1871 1.59215 20.7743C2.1212 21.8324 3.24986 23.1727 4.02581 23.8075C4.80176 24.4424 11.3268 27.8989 18.5572 31.5318C31.1135 37.8452 33.4766 39.256 33.4766 40.6315C33.4766 41.5838 30.4081 43.4532 18.2045 49.8724C3.92 57.4555 2.68553 58.302 1.06309 61.7233C0.18133 63.5926 0.14606 63.91 0.0402483 71.7048C-0.065563 77.2423 0.0402483 80.0992 0.322412 80.7693C0.851469 82.039 2.08593 82.6034 3.49675 82.1801C4.80176 81.7921 21.661 73.0451 56.7199 54.5634C65.4317 49.9782 67.689 47.2977 67.9711 41.2664C68.2886 34.6708 66.0313 31.2496 59.083 27.7578C25.5055 10.9338 3.28513 2.08765e-06 2.65026 2.08765e-06C2.22702 2.08765e-06 1.59215 0.211625 1.27471 0.423247Z" fill="#151515"/>
</svg>
